<svg width="148" height="148" viewBox="0 0 148 148" fill="none" xmlns="http://www.w3.org/2000/svg">
<rect x="99.5838" y="14.4617" width="41.4421" height="48.3491" rx="13.0626" transform="rotate(42.7275 99.5838 14.4617)" fill="url(#paint0_linear_26_64)"/>
<g filter="url(#filter0_b_26_64)">
<mask id="path-2-inside-1_26_64" fill="white">
<path d="M80.8381 34.7569C83.4264 31.9547 87.7962 31.7813 90.5984 34.3696L110.894 53.1155C113.696 55.7038 113.869 60.0737 111.281 62.8758L71.6987 105.729C69.9999 107.569 67.8332 108.912 65.4303 109.615L53.6416 113.064L35.3761 96.1926L37.8796 84.1671C38.39 81.716 39.5571 79.4497 41.2558 77.6105L80.8381 34.7569Z"/>
</mask>
<path d="M80.8381 34.7569C83.4264 31.9547 87.7962 31.7813 90.5984 34.3696L110.894 53.1155C113.696 55.7038 113.869 60.0737 111.281 62.8758L71.6987 105.729C69.9999 107.569 67.8332 108.912 65.4303 109.615L53.6416 113.064L35.3761 96.1926L37.8796 84.1671C38.39 81.716 39.5571 79.4497 41.2558 77.6105L80.8381 34.7569Z" fill="#BFB5FF" fill-opacity="0.6"/>
<path d="M90.5984 34.3696L90.1832 34.8191L90.5984 34.3696ZM80.8381 34.7569L80.3886 34.3417L80.8381 34.7569ZM110.894 53.1155L110.478 53.565L110.894 53.1155ZM111.281 62.8758L111.73 63.291L111.281 62.8758ZM71.6987 105.729L71.2492 105.314L71.6987 105.729ZM65.4303 109.615L65.6021 110.202L65.4303 109.615ZM53.6416 113.064L53.2264 113.513L53.4809 113.748L53.8134 113.651L53.6416 113.064ZM35.3761 96.1926L34.777 96.0679L34.7064 96.407L34.9609 96.6421L35.3761 96.1926ZM37.8796 84.1671L37.2806 84.0424L37.2805 84.0424L37.8796 84.1671ZM41.2558 77.6105L40.8064 77.1953L41.2558 77.6105ZM91.0136 33.9201C87.9631 31.1025 83.2062 31.2913 80.3886 34.3417L81.2876 35.1721C83.6466 32.6181 87.6293 32.4601 90.1832 34.8191L91.0136 33.9201ZM111.309 52.6661L91.0136 33.9201L90.1832 34.8191L110.478 53.565L111.309 52.6661ZM111.73 63.291C114.548 60.2406 114.359 55.4836 111.309 52.6661L110.478 53.565C113.032 55.924 113.19 59.9067 110.831 62.4607L111.73 63.291ZM72.1482 106.145L111.73 63.291L110.831 62.4607L71.2492 105.314L72.1482 106.145ZM65.6021 110.202C68.1115 109.468 70.3742 108.065 72.1482 106.145L71.2492 105.314C69.6257 107.072 67.5549 108.355 65.2584 109.027L65.6021 110.202ZM53.8134 113.651L65.6021 110.202L65.2584 109.027L53.4698 112.477L53.8134 113.651ZM54.0568 112.614L35.7912 95.7431L34.9609 96.6421L53.2264 113.513L54.0568 112.614ZM40.8064 77.1953C39.0323 79.116 37.8136 81.4827 37.2806 84.0424L38.4786 84.2919C38.9665 81.9493 40.0818 79.7834 41.7053 78.0257L40.8064 77.1953ZM80.3886 34.3417L40.8064 77.1953L41.7053 78.0257L81.2876 35.1721L80.3886 34.3417ZM35.9751 96.3173L38.4786 84.2918L37.2805 84.0424L34.777 96.0679L35.9751 96.3173Z" fill="url(#paint1_linear_26_64)" mask="url(#path-2-inside-1_26_64)"/>
</g>
<g filter="url(#filter1_b_26_64)">
<rect width="27.628" height="6.90701" rx="3.45351" transform="matrix(-0.734589 -0.678512 -0.678513 0.734589 106.207 58.1893)" fill="url(#paint2_linear_26_64)" fill-opacity="0.9"/>
<rect x="-0.345868" y="0.0137252" width="27.1385" height="6.4175" rx="3.20875" transform="matrix(-0.734589 -0.678512 -0.678513 0.734589 105.616 57.9583)" stroke="url(#paint3_linear_26_64)" stroke-width="0.489516"/>
</g>
<path d="M53.6417 113.064L35.376 96.1926L31.6229 114.215C31.0913 116.767 33.4714 118.966 35.9736 118.233L53.6417 113.064Z" fill="url(#paint4_linear_26_64)"/>
<defs>
<filter id="filter0_b_26_64" x="22.3135" y="19.4738" width="103.863" height="106.653" filterUnits="userSpaceOnUse" color-interpolation-filters="sRGB">
<feFlood flood-opacity="0" result="BackgroundImageFix"/>
<feGaussianBlur in="BackgroundImage" stdDeviation="6.53129"/>
<feComposite in2="SourceAlpha" operator="in" result="effect1_backgroundBlur_26_64"/>
<feBlend mode="normal" in="SourceGraphic" in2="effect1_backgroundBlur_26_64" result="shape"/>
</filter>
<filter id="filter1_b_26_64" x="56.5268" y="14.7448" width="74.3788" height="73.2169" filterUnits="userSpaceOnUse" color-interpolation-filters="sRGB">
<feFlood flood-opacity="0" result="BackgroundImageFix"/>
<feGaussianBlur in="BackgroundImage" stdDeviation="13.0626"/>
<feComposite in2="SourceAlpha" operator="in" result="effect1_backgroundBlur_26_64"/>
<feBlend mode="normal" in="SourceGraphic" in2="effect1_backgroundBlur_26_64" result="shape"/>
</filter>
<linearGradient id="paint0_linear_26_64" x1="111.538" y1="25.038" x2="144.254" y2="34.6816" gradientUnits="userSpaceOnUse">
<stop stop-color="#917FFB"/>
<stop offset="1" stop-color="#3F2DAF"/>
</linearGradient>
<linearGradient id="paint1_linear_26_64" x1="28.0484" y1="33.9343" x2="84.2493" y2="109.693" gradientUnits="userSpaceOnUse">
<stop stop-color="white"/>
<stop offset="0.765625" stop-color="white" stop-opacity="0"/>
</linearGradient>
<linearGradient id="paint2_linear_26_64" x1="28.1556" y1="3.85131" x2="-11.7222" y2="2.83569" gradientUnits="userSpaceOnUse">
<stop stop-color="#FCFDFE"/>
<stop offset="1" stop-color="#FCFDFE" stop-opacity="0"/>
</linearGradient>
<linearGradient id="paint3_linear_26_64" x1="27.3252" y1="4.75029" x2="13.814" y2="6.90701" gradientUnits="userSpaceOnUse">
<stop stop-color="white"/>
<stop offset="1" stop-color="white" stop-opacity="0"/>
</linearGradient>
<linearGradient id="paint4_linear_26_64" x1="38.0532" y1="103.865" x2="44.9767" y2="121.732" gradientUnits="userSpaceOnUse">
<stop stop-color="#917FFB"/>
<stop offset="1" stop-color="#3F2DAF"/>
</linearGradient>
</defs>
</svg>
